<?xml version="1.0" standalone="no"?>
<!DOCTYPE svg PUBLIC "-//W3C//DTD SVG 20010904//EN"
 "http://www.w3.org/TR/2001/REC-SVG-20010904/DTD/svg10.dtd">
<svg version="1.0" xmlns="http://www.w3.org/2000/svg"
 width="512.000000pt" height="512.000000pt" viewBox="0 0 512.000000 512.000000"
 preserveAspectRatio="xMidYMid meet">
<metadata>
Created by potrace 1.14, written by Peter Selinger 2001-2017
</metadata>
<g transform="translate(0.000000,512.000000) scale(0.100000,-0.100000)"
fill="#000000" stroke="none">
<path d="M0 2560 l0 -2560 2560 0 2560 0 0 2560 0 2560 -2560 0 -2560 0 0
-2560z m1515 1490 c365 -52 637 -233 776 -515 106 -217 118 -523 28 -755 -92
-240 -302 -432 -574 -525 -136 -46 -228 -56 -552 -62 l-313 -5 0 -569 0 -569
-265 0 -265 0 0 1505 0 1505 548 0 c308 0 578 -5 617 -10z m2436 -22 c244 -60
411 -155 542 -306 65 -75 149 -234 172 -326 69 -274 28 -545 -113 -752 -54
-80 -191 -209 -279 -264 -40 -25 -72 -48 -73 -53 0 -4 129 -264 286 -579 l286
-572 -7 -63 -7 -63 -252 0 -253 0 -279 580 -279 580 -217 0 -218 0 0 -580 0
-580 -265 0 -265 0 0 1506 0 1505 558 -4 557 -3 106 -26z"/>
<path d="M880 3129 l0 -470 303 3 c284 3 306 5 367 26 129 46 226 136 272 252
29 76 36 232 14 321 -42 164 -158 272 -344 320 -65 16 -111 19 -344 19 l-268
0 0 -471z"/>
<path d="M3260 3141 l0 -461 243 0 c179 0 258 4 305 15 198 47 327 180 354
364 30 204 -56 393 -216 471 -115 57 -149 62 -428 67 l-258 5 0 -461z"/>
</g>
</svg>
